<svg id="svg" version="1.1" xmlns="http://www.w3.org/2000/svg" xmlns:xlink="http://www.w3.org/1999/xlink" width="400" height="56.15598885793872" viewBox="0, 0, 400,56.15598885793872"><g id="svgg"><path id="path0" d="M2.792 2.613 C 2.359 2.729,2.335 54.568,2.768 54.734 C 3.189 54.895,35.454 54.844,35.874 54.681 C 36.081 54.601,36.850 54.445,37.583 54.335 C 38.317 54.224,38.992 54.075,39.083 54.002 C 39.175 53.930,39.587 53.817,40.000 53.752 C 40.412 53.686,41.012 53.517,41.333 53.377 C 43.137 52.589,44.790 51.771,45.070 51.528 C 45.317 51.314,45.358 51.307,45.250 51.500 C 45.133 51.708,45.163 51.706,45.430 51.486 C 45.606 51.341,46.156 50.978,46.652 50.679 C 47.148 50.381,47.660 50.031,47.789 49.902 C 47.918 49.772,48.077 49.667,48.141 49.667 C 48.206 49.667,48.557 49.369,48.921 49.005 C 49.285 48.642,49.645 48.342,49.719 48.339 C 49.882 48.332,51.976 46.247,52.333 45.737 C 52.471 45.540,52.867 45.050,53.214 44.648 C 53.919 43.829,54.407 43.108,55.003 42.000 C 55.225 41.587,55.493 41.137,55.599 41.000 C 55.705 40.862,55.892 40.469,56.013 40.125 C 56.134 39.781,56.284 39.500,56.345 39.500 C 56.406 39.500,56.555 39.144,56.674 38.708 C 56.794 38.273,56.937 37.879,56.992 37.833 C 57.216 37.647,57.961 34.928,58.363 32.833 C 58.714 31.001,58.591 24.494,58.190 23.692 C 58.114 23.540,57.959 22.873,57.845 22.209 C 57.730 21.545,57.575 20.963,57.499 20.916 C 57.424 20.870,57.312 20.532,57.250 20.166 C 57.188 19.800,57.072 19.500,56.992 19.500 C 56.912 19.500,56.761 19.181,56.657 18.792 C 56.553 18.402,56.391 17.990,56.297 17.875 C 56.203 17.760,56.191 17.666,56.271 17.664 C 56.351 17.663,56.342 17.606,56.250 17.539 C 56.158 17.472,55.898 17.042,55.671 16.583 C 55.444 16.125,55.211 15.713,55.152 15.667 C 55.094 15.621,54.913 15.321,54.750 15.000 C 54.587 14.679,54.408 14.379,54.352 14.333 C 54.296 14.287,53.972 13.838,53.632 13.333 C 53.293 12.829,52.674 12.057,52.257 11.617 C 51.841 11.177,51.500 10.777,51.500 10.730 C 51.500 10.552,51.036 10.186,50.937 10.286 C 50.880 10.342,50.833 10.296,50.833 10.183 C 50.833 9.954,50.337 9.394,50.328 9.613 C 50.325 9.688,50.231 9.631,50.120 9.485 C 49.871 9.160,47.887 7.500,47.747 7.500 C 47.692 7.500,47.327 7.256,46.936 6.958 C 46.545 6.660,45.481 6.042,44.571 5.583 C 43.661 5.125,42.871 4.687,42.815 4.611 C 42.759 4.534,42.646 4.478,42.565 4.485 C 42.362 4.503,41.288 4.152,41.083 4.000 C 40.992 3.932,40.785 3.897,40.625 3.923 C 40.465 3.949,40.333 3.909,40.333 3.833 C 40.333 3.758,40.015 3.643,39.625 3.579 C 39.235 3.515,38.835 3.396,38.735 3.316 C 38.634 3.235,37.772 3.087,36.818 2.987 C 35.864 2.886,34.958 2.739,34.805 2.659 C 34.524 2.512,3.336 2.468,2.792 2.613 M92.653 2.569 C 92.605 2.617,91.594 2.770,90.407 2.908 C 88.209 3.164,87.940 3.208,87.500 3.382 C 87.362 3.436,86.816 3.566,86.285 3.670 C 85.755 3.774,85.117 3.966,84.869 4.095 C 84.620 4.225,84.323 4.332,84.208 4.332 C 84.094 4.333,84.000 4.413,84.000 4.510 C 84.000 4.607,83.935 4.646,83.855 4.597 C 83.776 4.548,83.232 4.739,82.647 5.023 C 82.062 5.307,81.415 5.603,81.208 5.682 C 81.002 5.761,80.833 5.894,80.833 5.978 C 80.833 6.062,80.646 6.178,80.417 6.235 C 80.188 6.293,80.000 6.418,80.000 6.513 C 80.000 6.608,79.928 6.642,79.839 6.587 C 79.751 6.533,79.531 6.622,79.351 6.786 C 78.929 7.170,78.733 7.321,77.879 7.921 C 77.491 8.194,77.172 8.502,77.170 8.607 C 77.167 8.781,76.813 9.000,76.561 8.985 C 76.504 8.982,76.367 9.152,76.257 9.364 C 76.146 9.577,75.968 9.731,75.861 9.708 C 75.754 9.685,75.667 9.732,75.667 9.813 C 75.667 9.893,75.370 10.274,75.007 10.659 C 74.644 11.044,74.302 11.504,74.246 11.680 C 74.190 11.856,74.072 12.000,73.983 12.000 C 73.895 12.000,73.769 12.131,73.703 12.292 C 73.588 12.572,72.676 13.995,72.502 14.167 C 72.356 14.310,71.146 16.920,71.072 17.250 C 71.052 17.342,70.886 17.792,70.705 18.250 C 70.523 18.708,70.318 19.421,70.250 19.833 C 70.182 20.246,70.068 20.621,69.998 20.667 C 69.928 20.712,69.817 21.125,69.752 21.583 C 69.445 23.740,69.362 24.274,69.286 24.583 C 68.893 26.178,69.040 31.219,69.576 34.583 C 69.896 36.588,69.914 36.682,70.037 37.000 C 70.090 37.137,70.228 37.625,70.343 38.083 C 70.458 38.542,70.603 38.992,70.667 39.083 C 70.730 39.175,70.881 39.625,71.003 40.083 C 71.125 40.542,71.268 40.954,71.321 41.000 C 71.374 41.046,71.679 41.598,72.000 42.226 C 73.088 44.357,73.169 44.500,73.294 44.500 C 73.363 44.500,73.522 44.733,73.648 45.017 C 73.910 45.609,74.472 46.264,75.972 47.723 C 77.922 49.621,78.444 50.082,78.929 50.333 C 79.194 50.471,79.785 50.827,80.243 51.125 C 80.701 51.423,81.166 51.667,81.276 51.667 C 81.386 51.667,81.575 51.762,81.696 51.880 C 82.193 52.360,86.079 53.833,86.849 53.833 C 87.036 53.833,87.317 53.902,87.475 53.987 C 87.765 54.142,88.246 54.229,90.500 54.535 C 92.253 54.772,97.219 54.838,98.417 54.639 C 100.303 54.325,103.707 53.513,103.833 53.347 C 103.879 53.286,104.610 52.980,105.458 52.667 C 106.306 52.354,107.000 52.046,107.000 51.983 C 107.000 51.877,107.536 51.688,108.208 51.558 C 108.469 51.508,108.500 51.663,108.500 52.995 L 108.500 54.489 114.958 54.453 L 121.417 54.417 121.459 28.708 L 121.501 3.000 115.001 3.000 C 109.917 3.000,108.498 3.045,108.489 3.208 C 108.482 3.323,108.487 4.035,108.499 4.792 C 108.513 5.664,108.456 6.167,108.344 6.167 C 108.246 6.167,108.167 6.097,108.167 6.011 C 108.167 5.926,107.998 5.803,107.792 5.738 C 107.585 5.674,107.042 5.455,106.583 5.253 C 105.235 4.658,104.592 4.418,104.458 4.460 C 104.390 4.482,104.333 4.425,104.333 4.333 C 104.333 4.242,104.217 4.167,104.075 4.167 C 103.933 4.167,103.602 4.056,103.340 3.920 C 103.078 3.784,102.601 3.641,102.281 3.601 C 101.961 3.562,101.525 3.436,101.313 3.322 C 100.491 2.882,92.992 2.230,92.653 2.569 M188.256 3.028 C 187.526 3.111,186.888 3.243,186.839 3.320 C 186.790 3.397,186.366 3.512,185.897 3.576 C 185.428 3.640,184.838 3.799,184.586 3.929 C 184.334 4.060,184.005 4.167,183.853 4.167 C 183.589 4.167,183.227 4.338,181.417 5.324 C 179.937 6.129,179.758 6.245,179.534 6.542 C 179.413 6.702,179.225 6.833,179.115 6.833 C 178.814 6.833,176.333 9.487,176.333 9.809 C 176.333 9.886,176.184 10.083,176.002 10.248 C 175.820 10.413,175.580 10.800,175.469 11.107 C 175.357 11.415,175.212 11.667,175.146 11.667 C 175.080 11.667,174.935 11.948,174.825 12.292 C 174.714 12.635,174.548 13.012,174.456 13.127 C 174.364 13.243,174.181 13.768,174.050 14.294 C 173.919 14.820,173.731 15.550,173.632 15.917 C 172.830 18.898,173.798 25.344,175.292 26.964 C 175.406 27.089,175.500 27.294,175.500 27.420 C 175.500 27.547,175.599 27.710,175.721 27.783 C 175.842 27.857,176.119 28.160,176.335 28.458 C 176.552 28.756,176.830 29.000,176.953 29.000 C 177.076 29.000,177.227 29.131,177.288 29.292 C 177.570 30.034,180.266 31.657,182.750 32.581 C 183.392 32.820,184.297 33.163,184.763 33.345 C 185.228 33.526,185.890 33.710,186.233 33.754 C 186.576 33.798,187.005 33.914,187.186 34.010 C 187.367 34.107,187.938 34.255,188.454 34.339 C 188.970 34.423,189.435 34.550,189.488 34.621 C 189.540 34.692,189.658 34.758,189.750 34.769 C 190.426 34.844,192.100 35.247,192.170 35.351 C 192.218 35.422,192.469 35.518,192.728 35.565 C 192.986 35.612,193.472 35.806,193.807 35.996 C 194.142 36.186,194.623 36.431,194.875 36.540 C 195.127 36.650,195.333 36.836,195.333 36.953 C 195.333 37.071,195.442 37.167,195.576 37.167 C 195.872 37.167,196.077 38.127,195.949 38.917 C 195.758 40.095,194.180 41.258,192.197 41.685 C 191.676 41.797,191.100 41.925,190.917 41.970 C 190.733 42.016,186.701 42.080,181.956 42.113 L 173.329 42.173 173.373 48.461 L 173.417 54.750 182.875 54.784 C 188.077 54.802,192.333 54.761,192.333 54.691 C 192.333 54.622,192.652 54.550,193.042 54.530 C 193.431 54.511,194.313 54.410,195.000 54.306 C 195.688 54.202,196.381 54.123,196.542 54.131 C 196.702 54.139,196.833 54.084,196.833 54.009 C 196.833 53.933,197.190 53.819,197.625 53.755 C 198.060 53.690,198.642 53.540,198.917 53.420 C 199.672 53.091,200.050 52.956,200.409 52.887 C 200.589 52.853,200.776 52.761,200.826 52.683 C 200.876 52.606,201.160 52.489,201.458 52.424 C 201.756 52.360,202.000 52.233,202.000 52.144 C 202.000 52.054,202.075 52.027,202.167 52.083 C 202.258 52.140,202.333 52.107,202.333 52.010 C 202.333 51.913,202.405 51.833,202.492 51.833 C 202.579 51.833,202.983 51.608,203.391 51.333 C 203.798 51.058,204.182 50.833,204.244 50.833 C 204.306 50.833,204.457 50.740,204.578 50.625 C 206.264 49.035,207.125 48.140,207.320 47.776 C 207.450 47.533,207.594 47.372,207.641 47.419 C 207.721 47.499,209.332 44.742,209.334 44.521 C 209.335 44.463,209.454 44.192,209.599 43.917 C 209.850 43.439,210.194 42.039,210.500 40.250 C 210.766 38.692,210.625 33.736,210.320 33.925 C 210.247 33.970,210.135 33.652,210.070 33.220 C 210.005 32.787,209.762 32.017,209.530 31.508 C 209.298 31.000,209.121 30.527,209.137 30.458 C 209.153 30.390,209.104 30.333,209.027 30.333 C 208.950 30.333,208.800 30.143,208.694 29.910 C 208.588 29.678,208.425 29.397,208.332 29.285 C 208.239 29.174,207.946 28.801,207.681 28.456 C 207.416 28.111,206.761 27.474,206.225 27.039 C 205.689 26.605,205.168 26.175,205.067 26.083 C 204.499 25.568,200.422 23.766,199.444 23.598 C 199.184 23.553,198.884 23.451,198.777 23.370 C 198.598 23.234,197.190 22.889,196.417 22.792 C 196.233 22.769,196.046 22.704,196.000 22.648 C 195.954 22.591,195.204 22.383,194.333 22.184 C 191.738 21.593,191.258 21.468,191.083 21.336 C 190.992 21.267,190.617 21.115,190.250 20.998 C 187.576 20.147,186.918 17.641,189.026 16.336 C 190.285 15.557,191.053 15.500,200.281 15.500 L 208.833 15.500 208.833 9.167 L 208.833 2.833 199.208 2.855 C 193.915 2.867,188.986 2.945,188.256 3.028 M155.153 3.065 C 155.115 3.101,154.671 3.174,154.167 3.227 C 152.175 3.438,150.723 3.681,149.917 3.939 C 149.138 4.188,147.877 4.532,147.708 4.543 C 147.594 4.550,147.500 4.604,147.500 4.663 C 147.500 4.722,147.125 4.866,146.667 4.984 C 146.208 5.101,145.833 5.247,145.833 5.308 C 145.833 5.431,144.907 5.871,144.732 5.831 C 144.671 5.817,144.575 5.871,144.519 5.953 C 144.463 6.034,144.117 6.280,143.750 6.500 C 143.383 6.719,143.022 6.998,142.948 7.119 C 142.874 7.241,142.742 7.297,142.656 7.244 C 142.570 7.190,142.500 7.221,142.500 7.312 C 142.500 7.403,142.353 7.524,142.173 7.581 C 141.637 7.751,137.919 11.574,137.511 12.375 C 137.382 12.627,137.215 12.833,137.139 12.833 C 137.062 12.833,137.000 12.983,137.000 13.167 C 137.000 13.350,136.929 13.500,136.842 13.500 C 136.669 13.500,136.547 13.705,135.615 15.562 C 135.266 16.258,134.968 16.978,134.954 17.164 C 134.940 17.349,134.870 17.500,134.798 17.500 C 134.726 17.500,134.679 17.556,134.694 17.625 C 134.708 17.694,134.633 17.961,134.527 18.219 C 134.420 18.477,134.333 18.833,134.333 19.011 C 134.333 19.188,134.267 19.333,134.186 19.333 C 134.104 19.333,133.944 19.840,133.830 20.458 C 133.716 21.077,133.558 21.666,133.478 21.767 C 133.398 21.868,133.337 22.131,133.342 22.351 C 133.347 22.570,133.276 23.313,133.183 24.000 C 133.090 24.688,133.011 25.816,133.007 26.508 C 133.003 27.200,132.924 27.843,132.831 27.936 C 132.718 28.049,132.676 32.589,132.706 41.511 L 132.750 54.917 139.292 54.960 C 142.890 54.984,145.851 54.984,145.872 54.960 C 145.894 54.936,145.951 48.429,146.000 40.500 C 146.049 32.571,146.144 25.896,146.212 25.667 C 146.279 25.438,146.417 24.781,146.518 24.208 C 146.619 23.634,146.768 23.123,146.851 23.073 C 146.933 23.022,147.000 22.841,147.000 22.671 C 147.000 22.321,148.061 20.249,148.427 19.882 C 148.559 19.751,148.667 19.536,148.667 19.405 C 148.667 19.274,148.779 19.167,148.917 19.167 C 149.054 19.167,149.167 19.059,149.167 18.928 C 149.167 18.797,149.317 18.642,149.500 18.583 C 149.683 18.525,149.833 18.408,149.833 18.322 C 149.833 18.237,149.913 18.167,150.011 18.167 C 150.109 18.167,150.428 17.989,150.719 17.771 C 152.169 16.690,153.926 16.342,158.667 16.198 L 162.417 16.083 162.460 9.542 L 162.504 3.000 158.863 3.000 C 156.861 3.000,155.191 3.029,155.153 3.065 M242.958 3.123 C 242.431 3.156,242.000 3.244,242.000 3.318 C 242.000 3.391,241.511 3.497,240.913 3.553 C 238.539 3.775,233.670 5.534,232.487 6.597 C 232.342 6.727,232.124 6.833,232.002 6.833 C 231.759 6.833,230.026 8.087,229.734 8.475 C 229.633 8.608,229.464 8.664,229.359 8.599 C 229.253 8.534,229.167 8.545,229.167 8.623 C 229.167 8.702,228.492 9.467,227.667 10.324 C 226.842 11.181,226.167 11.946,226.167 12.025 C 226.167 12.103,226.035 12.304,225.875 12.473 C 225.715 12.641,225.491 12.922,225.378 13.098 C 225.265 13.273,224.984 13.701,224.753 14.049 C 224.522 14.397,224.333 14.793,224.333 14.929 C 224.333 15.066,224.221 15.220,224.083 15.273 C 223.946 15.326,223.833 15.455,223.832 15.559 C 223.831 15.664,223.646 16.125,223.420 16.583 C 223.195 17.042,223.008 17.548,223.005 17.708 C 223.002 17.869,222.933 18.000,222.851 18.000 C 222.701 18.000,222.532 18.509,222.383 19.417 C 222.338 19.692,222.237 19.956,222.159 20.004 C 222.082 20.052,221.937 20.615,221.837 21.254 C 221.737 21.894,221.585 22.642,221.498 22.917 C 221.103 24.168,220.892 30.112,221.151 32.667 C 221.386 34.984,221.408 35.131,221.548 35.270 C 221.613 35.335,221.667 35.626,221.667 35.915 C 221.667 36.325,222.202 38.424,222.729 40.083 C 222.980 40.871,223.803 42.627,224.176 43.167 C 224.334 43.396,224.459 43.621,224.453 43.667 C 224.448 43.712,224.662 44.079,224.930 44.482 C 225.198 44.885,225.507 45.372,225.617 45.565 C 226.051 46.327,229.369 49.833,229.656 49.833 C 229.721 49.833,230.031 50.063,230.345 50.344 C 230.659 50.626,231.329 51.089,231.833 51.375 C 232.338 51.661,232.796 51.962,232.852 52.045 C 232.908 52.128,233.000 52.194,233.056 52.194 C 233.286 52.190,234.167 52.582,234.167 52.688 C 234.167 52.751,234.542 52.899,235.000 53.016 C 235.458 53.134,235.833 53.281,235.833 53.343 C 235.833 53.406,236.190 53.548,236.625 53.660 C 237.060 53.773,237.567 53.932,237.750 54.015 C 237.933 54.097,238.608 54.279,239.250 54.419 C 239.892 54.559,240.567 54.709,240.750 54.754 C 242.413 55.158,249.638 55.308,251.917 54.984 C 252.467 54.906,253.142 54.809,253.417 54.769 C 254.502 54.611,256.592 54.132,256.750 54.005 C 256.841 53.932,257.179 53.818,257.500 53.752 C 258.150 53.618,258.870 53.327,260.023 52.732 C 260.447 52.513,260.916 52.333,261.064 52.333 C 261.212 52.333,261.333 52.254,261.333 52.157 C 261.333 52.060,261.400 52.022,261.483 52.073 C 261.565 52.123,261.669 52.071,261.714 51.957 C 261.760 51.843,262.155 51.563,262.592 51.333 C 263.029 51.104,263.573 50.748,263.801 50.542 C 264.029 50.335,264.312 50.167,264.430 50.167 C 264.548 50.167,264.692 50.016,264.751 49.831 C 264.809 49.646,264.918 49.533,264.993 49.579 C 265.067 49.625,265.438 49.326,265.817 48.915 C 266.197 48.503,266.580 48.167,266.670 48.167 C 266.760 48.167,266.834 48.110,266.834 48.042 C 266.835 47.973,267.078 47.647,267.376 47.317 C 268.469 46.104,269.333 44.942,269.333 44.684 C 269.333 44.594,269.558 44.274,269.833 43.973 C 270.108 43.672,270.333 43.330,270.333 43.213 C 270.333 43.096,270.408 43.000,270.500 43.000 C 270.592 43.000,270.667 42.896,270.667 42.769 C 270.667 42.642,270.775 42.329,270.908 42.073 C 271.041 41.817,271.112 41.546,271.065 41.470 C 271.018 41.395,271.045 41.333,271.123 41.333 C 271.239 41.333,271.705 40.333,271.745 40.000 C 271.751 39.954,271.803 39.842,271.861 39.750 C 272.088 39.391,272.973 35.729,273.089 34.667 C 273.124 34.346,273.237 33.371,273.340 32.500 C 273.458 31.508,273.488 29.765,273.422 27.833 C 273.291 24.009,273.308 24.282,273.182 24.083 C 273.124 23.992,273.078 23.692,273.080 23.417 C 273.082 23.142,273.034 22.879,272.975 22.833 C 272.915 22.787,272.814 22.337,272.751 21.833 C 272.687 21.329,272.574 20.842,272.499 20.750 C 272.423 20.658,272.357 20.508,272.352 20.417 C 272.326 19.959,271.920 18.667,271.802 18.667 C 271.727 18.667,271.667 18.541,271.667 18.387 C 271.667 17.981,271.289 17.000,271.133 17.000 C 271.060 17.000,271.000 16.883,271.000 16.739 C 271.000 16.044,268.415 11.880,267.716 11.450 C 267.597 11.377,267.500 11.249,267.500 11.167 C 267.500 10.946,266.665 10.085,266.442 10.076 C 266.337 10.072,266.269 9.978,266.292 9.867 C 266.315 9.757,266.221 9.667,266.083 9.667 C 265.946 9.667,265.833 9.567,265.833 9.445 C 265.833 9.323,265.646 9.123,265.417 9.000 C 265.188 8.877,265.000 8.716,265.000 8.641 C 265.000 8.566,264.681 8.303,264.292 8.058 C 263.902 7.813,263.508 7.522,263.417 7.412 C 263.325 7.302,262.762 6.958,262.167 6.648 C 261.571 6.337,261.046 6.037,261.000 5.981 C 260.869 5.819,258.677 4.897,257.667 4.579 C 257.162 4.420,256.525 4.191,256.250 4.070 C 255.765 3.857,253.540 3.444,251.333 3.158 C 250.288 3.022,244.923 3.000,242.958 3.123 M306.167 3.105 C 306.167 3.185,305.773 3.238,305.292 3.224 C 304.811 3.209,304.380 3.250,304.334 3.314 C 304.288 3.379,303.577 3.526,302.755 3.643 C 301.933 3.759,301.183 3.915,301.088 3.991 C 300.994 4.066,300.654 4.183,300.333 4.250 C 300.012 4.316,299.435 4.513,299.051 4.686 C 298.666 4.858,298.265 5.000,298.160 5.000 C 298.054 5.000,297.769 5.112,297.526 5.249 C 296.959 5.567,296.120 5.895,295.958 5.860 C 295.890 5.845,295.833 5.900,295.833 5.981 C 295.833 6.062,295.702 6.174,295.542 6.229 C 295.381 6.285,294.941 6.538,294.564 6.791 C 294.187 7.043,293.577 7.452,293.209 7.698 C 292.470 8.192,292.046 8.562,290.625 9.953 C 290.098 10.469,289.667 10.957,289.667 11.039 C 289.667 11.120,289.592 11.140,289.500 11.083 C 289.408 11.027,289.333 11.068,289.333 11.174 C 289.333 11.281,289.165 11.572,288.958 11.820 C 288.134 12.813,287.421 13.922,286.750 15.256 C 286.475 15.803,286.202 16.287,286.142 16.333 C 286.083 16.379,285.950 16.732,285.846 17.118 C 285.742 17.504,285.583 17.865,285.493 17.921 C 285.402 17.977,285.368 18.088,285.417 18.167 C 285.465 18.246,285.436 18.353,285.352 18.405 C 285.267 18.458,285.146 18.875,285.083 19.334 C 285.020 19.792,284.911 20.167,284.839 20.167 C 284.768 20.167,284.613 20.635,284.494 21.208 C 284.376 21.781,284.258 22.325,284.232 22.417 C 283.764 24.107,283.478 29.158,283.713 31.583 C 283.784 32.317,283.883 33.442,283.934 34.083 C 283.985 34.725,284.126 35.625,284.249 36.083 C 284.371 36.542,284.555 37.254,284.657 37.667 C 284.759 38.079,284.867 38.492,284.895 38.583 C 284.924 38.675,285.007 38.975,285.080 39.250 C 285.153 39.525,285.271 39.825,285.342 39.917 C 285.413 40.008,285.471 40.121,285.470 40.167 C 285.470 40.212,285.559 40.475,285.670 40.750 C 286.273 42.253,286.589 42.944,286.784 43.180 C 286.903 43.325,287.000 43.531,287.000 43.638 C 287.000 43.745,287.075 43.833,287.167 43.833 C 287.258 43.833,287.333 43.975,287.333 44.149 C 287.333 44.322,287.446 44.508,287.583 44.560 C 287.721 44.613,287.833 44.739,287.833 44.839 C 287.833 45.037,288.670 46.214,288.875 46.306 C 288.944 46.336,289.000 46.433,289.000 46.521 C 289.000 46.961,293.313 50.841,294.205 51.203 C 294.367 51.269,294.500 51.394,294.500 51.481 C 294.500 51.569,294.744 51.693,295.042 51.758 C 295.340 51.822,295.621 51.931,295.667 51.999 C 295.822 52.231,297.712 53.167,298.023 53.167 C 298.194 53.167,298.333 53.232,298.333 53.312 C 298.333 53.391,298.690 53.547,299.125 53.658 C 299.560 53.768,300.038 53.922,300.185 54.000 C 300.333 54.077,300.933 54.228,301.519 54.335 C 302.104 54.442,302.696 54.574,302.833 54.628 C 304.072 55.116,311.938 55.352,314.667 54.983 C 315.354 54.890,316.085 54.804,316.292 54.791 C 316.498 54.777,316.667 54.707,316.667 54.633 C 316.667 54.560,316.858 54.500,317.093 54.500 C 317.584 54.500,318.928 54.207,319.417 53.993 C 319.600 53.913,320.066 53.767,320.451 53.669 C 320.837 53.571,321.198 53.418,321.253 53.329 C 321.308 53.240,321.493 53.167,321.664 53.167 C 322.347 53.167,326.276 50.843,327.498 49.716 C 327.727 49.506,327.965 49.333,328.029 49.333 C 328.092 49.333,328.194 49.178,328.254 48.987 C 328.314 48.797,328.404 48.682,328.454 48.732 C 328.543 48.821,329.667 47.784,329.667 47.613 C 329.667 47.565,330.004 47.189,330.417 46.776 C 330.829 46.364,331.167 45.980,331.167 45.923 C 331.167 45.806,331.810 44.874,332.126 44.533 C 332.242 44.408,332.536 43.881,332.779 43.362 C 333.023 42.842,333.276 42.379,333.343 42.333 C 333.409 42.287,333.558 41.931,333.675 41.542 C 333.791 41.152,333.948 40.833,334.024 40.833 C 334.100 40.833,334.211 40.533,334.269 40.167 C 334.328 39.800,334.449 39.500,334.539 39.500 C 334.629 39.500,334.659 39.387,334.606 39.250 C 334.554 39.112,334.567 39.000,334.636 39.000 C 334.706 39.000,334.773 38.859,334.786 38.687 C 334.799 38.515,334.903 38.046,335.018 37.645 C 335.132 37.245,335.210 36.853,335.190 36.774 C 335.171 36.696,335.224 36.546,335.308 36.441 C 335.392 36.336,335.510 35.762,335.570 35.167 C 335.630 34.571,335.762 33.596,335.864 33.000 C 336.105 31.577,336.078 25.250,335.830 25.250 C 335.780 25.250,335.704 24.688,335.606 23.583 C 335.549 22.942,335.392 22.117,335.258 21.750 C 335.124 21.383,335.011 20.917,335.007 20.715 C 335.003 20.512,334.860 19.949,334.689 19.465 C 334.214 18.118,333.913 17.090,333.974 17.019 C 334.004 16.983,333.965 16.908,333.888 16.852 C 333.811 16.796,333.529 16.337,333.262 15.833 C 332.995 15.329,332.731 14.879,332.676 14.833 C 332.621 14.787,332.492 14.557,332.389 14.321 C 332.285 14.086,331.875 13.456,331.475 12.923 C 331.076 12.389,330.781 11.945,330.818 11.935 C 330.856 11.925,330.431 11.454,329.874 10.888 C 329.318 10.323,328.906 9.817,328.959 9.763 C 329.012 9.710,328.968 9.667,328.861 9.667 C 328.754 9.667,328.367 9.367,328.000 9.000 C 327.633 8.633,327.262 8.333,327.175 8.333 C 327.088 8.333,326.957 8.239,326.883 8.124 C 326.712 7.855,325.500 6.949,325.500 7.089 C 325.500 7.148,325.185 6.964,324.800 6.681 C 324.416 6.398,324.003 6.167,323.884 6.167 C 323.764 6.167,323.667 6.095,323.667 6.007 C 323.667 5.919,323.367 5.757,323.000 5.647 C 322.633 5.537,322.333 5.394,322.333 5.329 C 322.333 5.207,320.802 4.729,320.685 4.814 C 320.650 4.840,320.575 4.791,320.519 4.703 C 320.338 4.423,317.718 3.692,316.466 3.573 C 315.797 3.509,315.147 3.375,315.022 3.275 C 314.744 3.053,306.167 2.889,306.167 3.105 M369.442 3.114 C 369.394 3.161,369.069 3.220,368.719 3.245 C 367.330 3.342,363.806 4.189,363.392 4.524 C 363.287 4.610,363.029 4.712,362.820 4.753 C 362.611 4.793,361.669 5.202,360.726 5.663 C 359.783 6.123,358.951 6.500,358.876 6.500 C 358.801 6.500,358.635 6.646,358.506 6.824 C 358.378 7.003,358.211 7.111,358.136 7.065 C 358.061 7.018,358.000 7.055,358.000 7.146 C 358.000 7.236,357.862 7.355,357.694 7.408 C 357.525 7.462,357.157 7.710,356.875 7.961 C 355.811 8.909,355.500 9.162,355.500 9.083 C 355.500 9.038,354.863 9.628,354.083 10.393 C 353.304 11.158,352.667 11.870,352.667 11.976 C 352.667 12.081,352.602 12.167,352.522 12.167 C 352.443 12.167,352.107 12.523,351.776 12.958 C 351.445 13.394,351.108 13.830,351.026 13.927 C 350.945 14.025,350.782 14.287,350.664 14.510 C 350.546 14.734,350.405 14.954,350.349 15.000 C 350.293 15.046,349.986 15.608,349.665 16.250 C 349.345 16.892,349.027 17.442,348.958 17.472 C 348.890 17.503,348.833 17.599,348.833 17.686 C 348.833 17.773,348.709 18.123,348.557 18.464 C 348.405 18.804,348.269 19.121,348.254 19.167 C 348.240 19.212,348.126 19.587,348.002 20.000 C 347.877 20.412,347.717 20.828,347.646 20.924 C 347.575 21.019,347.397 21.619,347.252 22.257 C 347.106 22.895,346.905 23.754,346.806 24.167 C 346.686 24.664,346.600 29.892,346.552 39.710 L 346.479 54.504 352.781 54.460 L 359.083 54.417 359.167 40.250 C 359.240 27.809,359.283 25.992,359.518 25.333 C 359.665 24.921,359.883 24.265,360.003 23.875 C 360.122 23.485,360.277 23.167,360.347 23.167 C 360.417 23.167,360.566 22.885,360.678 22.542 C 360.873 21.944,361.075 21.644,362.169 20.333 C 363.302 18.977,364.776 17.729,365.444 17.561 C 365.658 17.508,365.833 17.410,365.833 17.343 C 365.833 17.202,367.728 16.334,368.039 16.332 C 368.155 16.332,368.475 16.206,368.750 16.053 C 369.727 15.510,374.505 15.591,375.750 16.171 C 375.933 16.257,376.283 16.359,376.526 16.399 C 376.770 16.440,377.151 16.591,377.373 16.737 C 377.595 16.882,377.827 16.951,377.888 16.889 C 377.950 16.828,378.000 16.851,378.000 16.942 C 378.000 17.032,378.300 17.274,378.667 17.480 C 379.033 17.686,379.333 17.925,379.333 18.011 C 379.333 18.096,379.471 18.167,379.638 18.167 C 379.992 18.167,382.500 20.594,382.500 20.937 C 382.500 21.063,382.577 21.167,382.671 21.167 C 382.765 21.167,382.913 21.354,383.000 21.583 C 383.087 21.813,383.235 22.000,383.329 22.000 C 383.423 22.000,383.486 22.056,383.469 22.125 C 383.452 22.194,383.576 22.550,383.746 22.917 C 383.915 23.283,384.066 23.621,384.083 23.667 C 384.222 24.060,384.401 24.519,384.636 25.083 C 384.887 25.685,384.918 27.158,384.962 40.125 L 385.011 54.500 391.341 54.500 L 397.672 54.500 397.618 39.958 C 397.589 31.960,397.515 25.192,397.456 24.917 C 397.396 24.642,397.271 23.967,397.178 23.417 C 397.085 22.867,396.934 22.162,396.842 21.851 C 396.751 21.540,396.723 21.210,396.781 21.117 C 396.838 21.024,396.807 20.996,396.713 21.055 C 396.615 21.115,396.486 20.929,396.414 20.622 C 396.276 20.038,396.231 19.878,396.167 19.750 C 396.144 19.704,396.109 19.610,396.090 19.542 C 395.913 18.907,394.975 16.941,394.789 16.815 C 394.706 16.759,394.644 16.665,394.650 16.607 C 394.665 16.482,394.137 15.321,393.958 15.083 C 393.888 14.992,393.498 14.467,393.091 13.917 C 392.684 13.367,392.197 12.751,392.009 12.548 C 391.820 12.345,391.667 12.121,391.667 12.050 C 391.667 11.785,388.131 8.502,387.960 8.608 C 387.854 8.673,387.830 8.639,387.901 8.525 C 387.970 8.413,387.896 8.283,387.726 8.218 C 387.449 8.111,387.308 8.008,386.466 7.297 C 386.280 7.139,385.967 6.960,385.772 6.899 C 385.577 6.838,385.379 6.736,385.333 6.673 C 385.287 6.609,384.875 6.362,384.417 6.123 C 383.682 5.740,383.113 5.477,381.083 4.580 C 380.808 4.458,380.358 4.309,380.083 4.247 C 379.808 4.186,379.358 4.038,379.083 3.919 C 378.808 3.799,378.208 3.657,377.750 3.603 C 377.292 3.549,376.392 3.391,375.750 3.252 C 374.638 3.012,369.652 2.903,369.442 3.114 M35.500 15.790 C 36.592 16.117,37.749 16.583,37.957 16.778 C 38.070 16.885,38.383 17.021,38.651 17.080 C 38.919 17.139,39.184 17.306,39.240 17.451 C 39.296 17.596,39.386 17.669,39.442 17.614 C 39.560 17.496,41.389 18.871,41.703 19.312 C 41.820 19.478,42.004 19.645,42.111 19.682 C 42.372 19.773,43.412 21.238,43.876 22.167 C 44.082 22.579,44.306 22.942,44.375 22.972 C 44.444 23.003,44.500 23.116,44.500 23.225 C 44.500 23.333,44.644 23.689,44.819 24.017 C 44.994 24.344,45.191 24.981,45.257 25.431 C 45.322 25.881,45.427 26.325,45.490 26.417 C 45.552 26.508,45.599 26.902,45.594 27.292 C 45.588 27.681,45.650 28.000,45.731 28.000 C 45.814 28.000,45.831 28.462,45.769 29.042 C 45.619 30.466,45.569 30.754,45.260 32.000 C 45.112 32.596,44.980 33.177,44.968 33.292 C 44.955 33.406,44.882 33.500,44.806 33.500 C 44.729 33.500,44.667 33.566,44.667 33.646 C 44.667 33.872,44.202 34.845,43.742 35.583 C 43.513 35.950,43.283 36.342,43.230 36.454 C 43.087 36.759,41.073 38.833,40.921 38.833 C 40.848 38.833,40.668 38.966,40.520 39.127 C 39.918 39.784,37.940 40.883,37.000 41.084 C 36.679 41.152,36.377 41.270,36.328 41.346 C 36.066 41.756,33.802 41.874,24.792 41.948 L 15.333 42.026 15.333 28.751 L 15.333 15.476 25.125 15.546 C 31.269 15.589,35.134 15.680,35.500 15.790 M99.211 15.957 C 99.324 16.045,99.904 16.214,100.500 16.333 C 101.096 16.452,101.702 16.650,101.846 16.774 C 101.991 16.898,102.272 17.000,102.471 17.000 C 102.670 17.000,102.833 17.064,102.833 17.141 C 102.833 17.219,103.136 17.419,103.506 17.586 C 104.227 17.911,104.697 18.300,105.292 19.064 C 105.498 19.329,105.667 19.490,105.667 19.422 C 105.667 19.355,105.929 19.690,106.250 20.167 C 106.571 20.643,106.833 21.138,106.833 21.267 C 106.833 21.395,106.896 21.500,106.974 21.500 C 107.115 21.500,107.587 22.808,107.530 23.042 C 107.514 23.110,107.584 23.167,107.686 23.167 C 107.795 23.167,107.839 23.340,107.793 23.583 C 107.749 23.813,107.771 24.000,107.842 24.000 C 107.962 24.000,108.266 26.217,108.237 26.875 C 108.229 27.035,108.286 27.167,108.362 27.167 C 108.528 27.167,108.550 30.061,108.385 30.226 C 108.322 30.289,108.244 30.696,108.211 31.129 C 108.162 31.794,107.919 33.324,107.768 33.917 C 107.745 34.008,107.600 34.374,107.446 34.729 C 107.292 35.084,107.167 35.515,107.167 35.687 C 107.167 35.859,107.098 36.000,107.015 36.000 C 106.931 36.000,106.696 36.345,106.492 36.767 C 106.090 37.596,103.896 39.892,103.650 39.740 C 103.567 39.689,103.500 39.708,103.499 39.782 C 103.497 39.971,102.532 40.500,102.186 40.500 C 102.029 40.500,101.829 40.567,101.742 40.650 C 100.953 41.396,94.873 41.953,92.167 41.527 C 90.260 41.226,87.790 40.418,87.500 39.999 C 87.454 39.933,87.250 39.826,87.047 39.763 C 86.632 39.634,84.333 37.478,84.333 37.218 C 84.333 37.126,84.183 36.878,84.000 36.667 C 83.817 36.455,83.667 36.149,83.667 35.986 C 83.667 35.824,83.568 35.591,83.447 35.470 C 82.750 34.770,82.292 31.555,82.370 27.917 C 82.434 24.963,82.477 24.679,83.181 22.583 C 83.273 22.308,83.364 22.008,83.383 21.917 C 83.401 21.825,83.454 21.712,83.500 21.667 C 83.649 21.518,84.001 20.929,84.247 20.417 C 84.534 19.822,86.056 18.167,86.317 18.167 C 86.418 18.167,86.500 18.092,86.500 18.000 C 86.500 17.908,86.603 17.833,86.730 17.833 C 86.856 17.833,87.048 17.727,87.156 17.597 C 87.264 17.467,87.723 17.227,88.176 17.064 C 88.629 16.901,89.000 16.716,89.000 16.652 C 89.000 16.589,89.281 16.479,89.625 16.408 C 89.969 16.338,90.362 16.250,90.500 16.213 C 90.638 16.177,90.900 16.125,91.083 16.099 C 91.267 16.072,91.529 16.004,91.667 15.947 C 92.372 15.656,98.835 15.664,99.211 15.957 M250.292 16.346 C 251.323 16.455,252.167 16.603,252.167 16.674 C 252.167 16.746,252.459 16.853,252.816 16.914 C 253.393 17.011,254.653 17.569,255.825 18.245 C 256.440 18.600,257.833 20.017,258.123 20.583 C 258.264 20.858,258.431 21.121,258.493 21.167 C 259.022 21.556,260.001 24.681,260.112 26.333 C 260.164 27.113,260.257 27.806,260.319 27.874 C 260.380 27.942,260.378 28.654,260.313 29.457 C 260.249 30.260,260.156 31.442,260.108 32.083 C 260.060 32.725,259.901 33.625,259.754 34.083 C 259.608 34.542,259.405 35.176,259.304 35.494 C 259.202 35.811,259.018 36.173,258.893 36.297 C 258.769 36.422,258.667 36.631,258.667 36.762 C 258.667 36.893,258.610 37.000,258.541 37.000 C 258.471 37.000,258.322 37.209,258.209 37.465 C 257.931 38.094,256.298 39.758,255.626 40.098 C 255.328 40.250,254.971 40.465,254.833 40.576 C 254.238 41.058,251.364 41.876,250.208 41.892 C 249.910 41.897,249.667 41.960,249.667 42.033 C 249.667 42.233,244.706 42.199,244.582 41.998 C 244.525 41.906,244.277 41.839,244.031 41.850 C 243.415 41.877,241.930 41.557,241.375 41.278 C 241.123 41.151,240.697 40.994,240.428 40.929 C 239.821 40.783,238.500 40.021,238.500 39.817 C 238.500 39.735,238.406 39.667,238.291 39.667 C 237.595 39.667,235.689 36.908,234.984 34.879 C 234.498 33.483,234.018 30.029,234.132 28.750 C 234.140 28.658,234.181 28.058,234.223 27.417 C 234.339 25.651,234.512 24.692,234.930 23.500 C 235.426 22.086,236.430 20.238,236.669 20.296 C 236.773 20.321,236.814 20.270,236.759 20.182 C 236.583 19.896,239.095 17.684,239.621 17.661 C 239.692 17.658,240.050 17.510,240.417 17.333 C 240.783 17.156,241.196 17.008,241.333 17.005 C 241.471 17.001,241.790 16.890,242.043 16.758 C 242.660 16.436,247.061 15.974,248.167 16.115 C 248.304 16.133,249.260 16.237,250.292 16.346 M313.004 16.341 C 314.994 16.586,316.264 16.930,316.790 17.367 C 316.906 17.463,317.000 17.489,317.000 17.425 C 317.000 17.362,317.118 17.427,317.262 17.571 C 317.406 17.715,317.631 17.833,317.762 17.833 C 317.893 17.833,318.000 17.896,318.000 17.973 C 318.000 18.050,318.190 18.200,318.423 18.306 C 318.981 18.560,320.675 20.186,320.565 20.362 C 320.519 20.438,320.541 20.501,320.615 20.501 C 320.756 20.503,320.826 20.623,321.631 22.250 C 322.102 23.204,322.236 23.624,322.425 24.750 C 322.471 25.025,322.585 25.442,322.678 25.677 C 322.942 26.342,322.764 32.626,322.457 33.500 C 322.409 33.637,322.281 34.181,322.173 34.708 C 322.064 35.235,321.918 35.667,321.848 35.667 C 321.777 35.667,321.630 35.967,321.520 36.333 C 321.410 36.700,321.257 37.000,321.179 37.000 C 321.037 37.000,320.779 37.636,320.819 37.887 C 320.832 37.963,320.775 37.984,320.694 37.934 C 320.614 37.884,320.410 38.099,320.241 38.411 C 320.073 38.724,319.889 38.951,319.833 38.916 C 319.776 38.881,319.540 39.055,319.307 39.302 C 319.074 39.548,318.666 39.863,318.400 40.000 C 318.134 40.138,317.842 40.342,317.750 40.455 C 317.511 40.750,314.938 41.608,313.575 41.848 C 311.928 42.138,305.835 42.109,305.834 41.811 C 305.834 41.753,305.421 41.654,304.917 41.591 C 304.412 41.528,304.000 41.410,304.000 41.329 C 304.000 41.248,303.721 41.129,303.380 41.065 C 302.533 40.907,298.975 38.500,299.587 38.500 C 299.631 38.500,299.517 38.350,299.333 38.167 C 299.150 37.983,299.000 37.754,299.000 37.657 C 299.000 37.560,298.925 37.527,298.833 37.583 C 298.742 37.640,298.664 37.588,298.662 37.468 C 298.659 37.348,298.401 36.729,298.088 36.093 C 297.776 35.456,297.558 34.875,297.603 34.801 C 297.649 34.727,297.622 34.667,297.544 34.667 C 297.061 34.667,296.577 28.906,296.885 26.833 C 297.253 24.361,297.375 23.734,297.527 23.551 C 297.619 23.439,297.647 23.270,297.588 23.174 C 297.529 23.078,297.560 23.000,297.657 23.000 C 297.754 23.000,297.833 22.906,297.834 22.792 C 297.834 22.567,298.755 20.758,299.063 20.375 C 299.166 20.247,299.381 19.998,299.542 19.821 C 299.702 19.645,299.796 19.500,299.750 19.500 C 299.704 19.500,299.817 19.350,300.000 19.167 C 300.183 18.983,300.374 18.833,300.424 18.833 C 300.515 18.833,300.779 18.629,301.286 18.167 C 301.436 18.029,301.602 17.907,301.655 17.894 C 302.169 17.773,302.480 17.603,302.406 17.483 C 302.357 17.403,302.432 17.382,302.575 17.436 C 302.717 17.491,302.833 17.461,302.833 17.370 C 302.833 17.278,303.107 17.152,303.441 17.090 C 303.775 17.027,304.209 16.871,304.405 16.742 C 304.601 16.614,305.396 16.460,306.172 16.399 C 306.948 16.339,307.615 16.262,307.653 16.228 C 307.803 16.095,311.671 16.176,313.004 16.341 " stroke="none" fill="#f4744c" fill-rule="evenodd"></path><path id="path1" d="M91.769 2.637 C 91.722 2.712,91.905 2.741,92.175 2.701 C 92.446 2.661,92.667 2.600,92.667 2.564 C 92.667 2.437,91.851 2.503,91.769 2.637 M108.330 4.750 C 108.244 6.093,108.258 6.298,108.424 6.132 C 108.474 6.082,108.492 5.450,108.465 4.729 L 108.415 3.417 108.330 4.750 M363.002 4.482 C 362.762 4.549,362.664 4.645,362.769 4.710 C 362.869 4.772,363.093 4.715,363.267 4.583 C 363.615 4.320,363.603 4.315,363.002 4.482 M331.167 12.437 C 331.167 12.524,331.393 12.856,331.671 13.173 L 332.175 13.750 331.745 13.088 C 331.235 12.304,331.167 12.226,331.167 12.437 M304.410 16.734 C 304.110 16.953,304.119 16.963,304.545 16.881 C 304.795 16.834,305.000 16.728,305.000 16.647 C 305.000 16.433,304.776 16.466,304.410 16.734 M314.589 16.675 C 314.642 16.762,314.844 16.833,315.038 16.833 C 315.463 16.833,315.349 16.683,314.851 16.587 C 314.651 16.548,314.535 16.588,314.589 16.675 M285.552 17.458 C 285.495 17.619,285.417 17.825,285.379 17.917 C 285.340 18.008,285.427 17.938,285.571 17.760 C 285.833 17.437,285.912 17.167,285.745 17.167 C 285.696 17.167,285.609 17.298,285.552 17.458 M40.843 18.625 C 40.848 18.694,41.091 18.933,41.384 19.156 L 41.917 19.562 41.427 19.031 C 40.918 18.479,40.827 18.416,40.843 18.625 M334.333 18.531 C 334.333 18.585,334.450 18.881,334.592 19.189 C 334.849 19.748,334.849 19.748,334.746 19.250 C 334.657 18.818,334.333 18.254,334.333 18.531 M284.833 19.403 C 284.833 19.533,284.788 19.758,284.732 19.903 C 284.677 20.048,284.706 20.167,284.797 20.167 C 284.888 20.167,284.995 19.942,285.036 19.667 C 285.076 19.392,285.047 19.167,284.971 19.167 C 284.895 19.167,284.833 19.273,284.833 19.403 M42.101 19.904 C 42.151 20.034,42.301 20.183,42.433 20.233 C 42.627 20.308,42.639 20.261,42.498 19.996 C 42.297 19.621,41.963 19.543,42.101 19.904 M335.173 21.523 C 335.256 21.810,335.375 22.091,335.438 22.148 C 335.501 22.204,335.504 22.113,335.443 21.945 C 335.383 21.777,335.333 21.496,335.333 21.320 C 335.333 21.144,335.264 21.000,335.178 21.000 C 335.084 21.000,335.082 21.204,335.173 21.523 M361.082 21.668 C 360.916 21.852,360.819 22.041,360.867 22.090 C 360.915 22.138,361.079 21.987,361.231 21.755 C 361.563 21.248,361.497 21.209,361.082 21.668 M69.360 23.445 C 69.345 23.735,69.290 24.110,69.237 24.278 C 69.147 24.566,69.152 24.567,69.331 24.288 C 69.435 24.126,69.490 23.751,69.454 23.455 L 69.387 22.917 69.360 23.445 M107.503 23.292 C 107.510 23.657,107.828 23.899,107.831 23.542 C 107.832 23.335,107.758 23.167,107.667 23.167 C 107.575 23.167,107.501 23.223,107.503 23.292 M397.169 23.958 C 397.177 24.324,397.495 24.566,397.497 24.208 C 397.499 24.002,397.425 23.833,397.333 23.833 C 397.242 23.833,397.168 23.890,397.169 23.958 M44.778 24.294 C 44.831 24.502,44.940 24.713,45.020 24.762 C 45.248 24.903,45.193 24.598,44.925 24.240 C 44.692 23.928,44.687 23.930,44.778 24.294 M335.717 24.819 C 335.790 25.297,336.000 25.460,336.000 25.038 C 336.000 24.844,335.925 24.640,335.833 24.583 C 335.737 24.524,335.688 24.624,335.717 24.819 M384.612 25.750 C 384.738 26.574,384.834 26.714,384.831 26.069 C 384.829 25.802,384.757 25.471,384.669 25.333 C 384.560 25.163,384.542 25.296,384.612 25.750 M322.503 25.792 C 322.501 25.998,322.575 26.167,322.667 26.167 C 322.875 26.167,322.875 25.990,322.667 25.667 C 322.536 25.465,322.505 25.488,322.503 25.792 M283.568 26.731 C 283.519 26.858,283.504 27.289,283.535 27.689 C 283.589 28.393,283.593 28.386,283.670 27.458 C 283.751 26.485,283.727 26.315,283.568 26.731 M296.847 27.167 C 296.826 27.396,296.781 27.724,296.749 27.897 C 296.709 28.106,296.745 28.155,296.857 28.043 C 296.949 27.951,296.993 27.622,296.955 27.313 C 296.902 26.875,296.878 26.843,296.847 27.167 M346.413 40.583 C 346.413 48.192,346.433 51.329,346.458 47.554 C 346.483 43.780,346.483 37.555,346.458 33.721 C 346.433 29.887,346.413 32.975,346.413 40.583 M108.332 28.701 C 108.287 29.590,108.309 30.258,108.382 30.186 C 108.454 30.113,108.491 29.385,108.464 28.568 L 108.414 27.083 108.332 28.701 M283.500 30.917 C 283.500 31.360,283.554 31.668,283.620 31.602 C 283.740 31.483,283.697 30.313,283.568 30.181 C 283.531 30.142,283.500 30.474,283.500 30.917 M296.857 32.000 C 296.857 32.137,296.921 32.400,297.000 32.583 C 297.090 32.793,297.143 32.824,297.143 32.667 C 297.143 32.529,297.079 32.267,297.000 32.083 C 296.910 31.873,296.857 31.842,296.857 32.000 M335.875 33.083 C 335.877 33.450,335.911 33.580,335.951 33.373 C 335.991 33.166,335.990 32.866,335.948 32.706 C 335.906 32.547,335.874 32.717,335.875 33.083 M69.290 33.603 C 69.338 34.050,69.405 34.448,69.439 34.486 C 69.572 34.637,69.486 33.235,69.349 33.019 C 69.259 32.878,69.237 33.105,69.290 33.603 M273.104 34.090 C 273.047 34.239,273.008 34.523,273.017 34.722 C 273.028 34.950,273.084 34.869,273.171 34.501 C 273.317 33.882,273.277 33.639,273.104 34.090 M210.250 41.333 C 210.187 41.530,210.174 41.729,210.220 41.775 C 210.265 41.821,210.354 41.697,210.417 41.500 C 210.479 41.303,210.493 41.104,210.447 41.058 C 210.401 41.012,210.313 41.136,210.250 41.333 M19.625 41.958 C 22.031 41.984,25.969 41.984,28.375 41.958 C 30.781 41.932,28.813 41.911,24.000 41.911 C 19.188 41.911,17.219 41.932,19.625 41.958 M269.492 44.348 C 269.390 44.539,269.350 44.739,269.403 44.792 C 269.456 44.845,269.500 44.807,269.500 44.706 C 269.500 44.606,269.618 44.406,269.762 44.262 C 269.906 44.118,269.946 44.000,269.851 44.000 C 269.756 44.000,269.595 44.156,269.492 44.348 M329.958 47.232 C 329.798 47.354,329.667 47.499,329.667 47.555 C 329.667 47.743,330.140 47.477,330.232 47.237 C 330.342 46.951,330.329 46.951,329.958 47.232 M49.289 48.667 C 49.132 48.850,49.061 49.000,49.131 49.000 C 49.202 49.000,49.388 48.850,49.545 48.667 C 49.702 48.483,49.772 48.333,49.702 48.333 C 49.632 48.333,49.446 48.483,49.289 48.667 M108.393 53.000 C 108.393 53.871,108.422 54.227,108.456 53.792 C 108.490 53.356,108.490 52.644,108.456 52.208 C 108.422 51.773,108.393 52.129,108.393 53.000 M91.000 54.667 C 91.000 54.758,91.206 54.832,91.458 54.831 C 91.815 54.829,91.861 54.793,91.667 54.667 C 91.341 54.456,91.000 54.456,91.000 54.667 M98.083 54.667 L 97.583 54.794 98.032 54.814 C 98.279 54.824,98.527 54.758,98.583 54.667 C 98.640 54.575,98.663 54.509,98.635 54.520 C 98.607 54.531,98.358 54.597,98.083 54.667 " stroke="none" fill="#f8744c" fill-rule="evenodd"></path><path id="path2" d="M91.769 2.637 C 91.722 2.712,91.905 2.741,92.175 2.701 C 92.446 2.661,92.667 2.600,92.667 2.564 C 92.667 2.437,91.851 2.503,91.769 2.637 M108.330 4.750 C 108.244 6.093,108.258 6.298,108.424 6.132 C 108.474 6.082,108.492 5.450,108.465 4.729 L 108.415 3.417 108.330 4.750 M363.002 4.482 C 362.762 4.549,362.664 4.645,362.769 4.710 C 362.869 4.772,363.093 4.715,363.267 4.583 C 363.615 4.320,363.603 4.315,363.002 4.482 M331.167 12.437 C 331.167 12.524,331.393 12.856,331.671 13.173 L 332.175 13.750 331.745 13.088 C 331.235 12.304,331.167 12.226,331.167 12.437 M304.410 16.734 C 304.110 16.953,304.119 16.963,304.545 16.881 C 304.795 16.834,305.000 16.728,305.000 16.647 C 305.000 16.433,304.776 16.466,304.410 16.734 M314.589 16.675 C 314.642 16.762,314.844 16.833,315.038 16.833 C 315.463 16.833,315.349 16.683,314.851 16.587 C 314.651 16.548,314.535 16.588,314.589 16.675 M285.552 17.458 C 285.495 17.619,285.417 17.825,285.379 17.917 C 285.340 18.008,285.427 17.938,285.571 17.760 C 285.833 17.437,285.912 17.167,285.745 17.167 C 285.696 17.167,285.609 17.298,285.552 17.458 M40.843 18.625 C 40.848 18.694,41.091 18.933,41.384 19.156 L 41.917 19.562 41.427 19.031 C 40.918 18.479,40.827 18.416,40.843 18.625 M334.333 18.531 C 334.333 18.585,334.450 18.881,334.592 19.189 C 334.849 19.748,334.849 19.748,334.746 19.250 C 334.657 18.818,334.333 18.254,334.333 18.531 M284.833 19.403 C 284.833 19.533,284.788 19.758,284.732 19.903 C 284.677 20.048,284.706 20.167,284.797 20.167 C 284.888 20.167,284.995 19.942,285.036 19.667 C 285.076 19.392,285.047 19.167,284.971 19.167 C 284.895 19.167,284.833 19.273,284.833 19.403 M42.101 19.904 C 42.151 20.034,42.301 20.183,42.433 20.233 C 42.627 20.308,42.639 20.261,42.498 19.996 C 42.297 19.621,41.963 19.543,42.101 19.904 M335.173 21.523 C 335.256 21.810,335.375 22.091,335.438 22.148 C 335.501 22.204,335.504 22.113,335.443 21.945 C 335.383 21.777,335.333 21.496,335.333 21.320 C 335.333 21.144,335.264 21.000,335.178 21.000 C 335.084 21.000,335.082 21.204,335.173 21.523 M361.082 21.668 C 360.916 21.852,360.819 22.041,360.867 22.090 C 360.915 22.138,361.079 21.987,361.231 21.755 C 361.563 21.248,361.497 21.209,361.082 21.668 M69.360 23.445 C 69.345 23.735,69.290 24.110,69.237 24.278 C 69.147 24.566,69.152 24.567,69.331 24.288 C 69.435 24.126,69.490 23.751,69.454 23.455 L 69.387 22.917 69.360 23.445 M107.503 23.292 C 107.510 23.657,107.828 23.899,107.831 23.542 C 107.832 23.335,107.758 23.167,107.667 23.167 C 107.575 23.167,107.501 23.223,107.503 23.292 M397.169 23.958 C 397.177 24.324,397.495 24.566,397.497 24.208 C 397.499 24.002,397.425 23.833,397.333 23.833 C 397.242 23.833,397.168 23.890,397.169 23.958 M44.778 24.294 C 44.831 24.502,44.940 24.713,45.020 24.762 C 45.248 24.903,45.193 24.598,44.925 24.240 C 44.692 23.928,44.687 23.930,44.778 24.294 M335.717 24.819 C 335.790 25.297,336.000 25.460,336.000 25.038 C 336.000 24.844,335.925 24.640,335.833 24.583 C 335.737 24.524,335.688 24.624,335.717 24.819 M384.612 25.750 C 384.738 26.574,384.834 26.714,384.831 26.069 C 384.829 25.802,384.757 25.471,384.669 25.333 C 384.560 25.163,384.542 25.296,384.612 25.750 M322.503 25.792 C 322.501 25.998,322.575 26.167,322.667 26.167 C 322.875 26.167,322.875 25.990,322.667 25.667 C 322.536 25.465,322.505 25.488,322.503 25.792 M283.568 26.731 C 283.519 26.858,283.504 27.289,283.535 27.689 C 283.589 28.393,283.593 28.386,283.670 27.458 C 283.751 26.485,283.727 26.315,283.568 26.731 M296.847 27.167 C 296.826 27.396,296.781 27.724,296.749 27.897 C 296.709 28.106,296.745 28.155,296.857 28.043 C 296.949 27.951,296.993 27.622,296.955 27.313 C 296.902 26.875,296.878 26.843,296.847 27.167 M346.413 40.583 C 346.413 48.192,346.433 51.329,346.458 47.554 C 346.483 43.780,346.483 37.555,346.458 33.721 C 346.433 29.887,346.413 32.975,346.413 40.583 M108.332 28.701 C 108.287 29.590,108.309 30.258,108.382 30.186 C 108.454 30.113,108.491 29.385,108.464 28.568 L 108.414 27.083 108.332 28.701 M283.500 30.917 C 283.500 31.360,283.554 31.668,283.620 31.602 C 283.740 31.483,283.697 30.313,283.568 30.181 C 283.531 30.142,283.500 30.474,283.500 30.917 M296.857 32.000 C 296.857 32.137,296.921 32.400,297.000 32.583 C 297.090 32.793,297.143 32.824,297.143 32.667 C 297.143 32.529,297.079 32.267,297.000 32.083 C 296.910 31.873,296.857 31.842,296.857 32.000 M335.875 33.083 C 335.877 33.450,335.911 33.580,335.951 33.373 C 335.991 33.166,335.990 32.866,335.948 32.706 C 335.906 32.547,335.874 32.717,335.875 33.083 M69.290 33.603 C 69.338 34.050,69.405 34.448,69.439 34.486 C 69.572 34.637,69.486 33.235,69.349 33.019 C 69.259 32.878,69.237 33.105,69.290 33.603 M273.104 34.090 C 273.047 34.239,273.008 34.523,273.017 34.722 C 273.028 34.950,273.084 34.869,273.171 34.501 C 273.317 33.882,273.277 33.639,273.104 34.090 M210.250 41.333 C 210.187 41.530,210.174 41.729,210.220 41.775 C 210.265 41.821,210.354 41.697,210.417 41.500 C 210.479 41.303,210.493 41.104,210.447 41.058 C 210.401 41.012,210.313 41.136,210.250 41.333 M19.625 41.958 C 22.031 41.984,25.969 41.984,28.375 41.958 C 30.781 41.932,28.813 41.911,24.000 41.911 C 19.188 41.911,17.219 41.932,19.625 41.958 M269.492 44.348 C 269.390 44.539,269.350 44.739,269.403 44.792 C 269.456 44.845,269.500 44.807,269.500 44.706 C 269.500 44.606,269.618 44.406,269.762 44.262 C 269.906 44.118,269.946 44.000,269.851 44.000 C 269.756 44.000,269.595 44.156,269.492 44.348 M329.958 47.232 C 329.798 47.354,329.667 47.499,329.667 47.555 C 329.667 47.743,330.140 47.477,330.232 47.237 C 330.342 46.951,330.329 46.951,329.958 47.232 M49.289 48.667 C 49.132 48.850,49.061 49.000,49.131 49.000 C 49.202 49.000,49.388 48.850,49.545 48.667 C 49.702 48.483,49.772 48.333,49.702 48.333 C 49.632 48.333,49.446 48.483,49.289 48.667 M108.393 53.000 C 108.393 53.871,108.422 54.227,108.456 53.792 C 108.490 53.356,108.490 52.644,108.456 52.208 C 108.422 51.773,108.393 52.129,108.393 53.000 M91.000 54.667 C 91.000 54.758,91.206 54.832,91.458 54.831 C 91.815 54.829,91.861 54.793,91.667 54.667 C 91.341 54.456,91.000 54.456,91.000 54.667 M98.083 54.667 L 97.583 54.794 98.032 54.814 C 98.279 54.824,98.527 54.758,98.583 54.667 C 98.640 54.575,98.663 54.509,98.635 54.520 C 98.607 54.531,98.358 54.597,98.083 54.667 " stroke="none" fill="#f8744c" fill-rule="evenodd"></path><path id="path3" d="M91.769 2.637 C 91.722 2.712,91.905 2.741,92.175 2.701 C 92.446 2.661,92.667 2.600,92.667 2.564 C 92.667 2.437,91.851 2.503,91.769 2.637 M108.330 4.750 C 108.244 6.093,108.258 6.298,108.424 6.132 C 108.474 6.082,108.492 5.450,108.465 4.729 L 108.415 3.417 108.330 4.750 M363.002 4.482 C 362.762 4.549,362.664 4.645,362.769 4.710 C 362.869 4.772,363.093 4.715,363.267 4.583 C 363.615 4.320,363.603 4.315,363.002 4.482 M331.167 12.437 C 331.167 12.524,331.393 12.856,331.671 13.173 L 332.175 13.750 331.745 13.088 C 331.235 12.304,331.167 12.226,331.167 12.437 M304.410 16.734 C 304.110 16.953,304.119 16.963,304.545 16.881 C 304.795 16.834,305.000 16.728,305.000 16.647 C 305.000 16.433,304.776 16.466,304.410 16.734 M314.589 16.675 C 314.642 16.762,314.844 16.833,315.038 16.833 C 315.463 16.833,315.349 16.683,314.851 16.587 C 314.651 16.548,314.535 16.588,314.589 16.675 M285.552 17.458 C 285.495 17.619,285.417 17.825,285.379 17.917 C 285.340 18.008,285.427 17.938,285.571 17.760 C 285.833 17.437,285.912 17.167,285.745 17.167 C 285.696 17.167,285.609 17.298,285.552 17.458 M40.843 18.625 C 40.848 18.694,41.091 18.933,41.384 19.156 L 41.917 19.562 41.427 19.031 C 40.918 18.479,40.827 18.416,40.843 18.625 M334.333 18.531 C 334.333 18.585,334.450 18.881,334.592 19.189 C 334.849 19.748,334.849 19.748,334.746 19.250 C 334.657 18.818,334.333 18.254,334.333 18.531 M284.833 19.403 C 284.833 19.533,284.788 19.758,284.732 19.903 C 284.677 20.048,284.706 20.167,284.797 20.167 C 284.888 20.167,284.995 19.942,285.036 19.667 C 285.076 19.392,285.047 19.167,284.971 19.167 C 284.895 19.167,284.833 19.273,284.833 19.403 M42.101 19.904 C 42.151 20.034,42.301 20.183,42.433 20.233 C 42.627 20.308,42.639 20.261,42.498 19.996 C 42.297 19.621,41.963 19.543,42.101 19.904 M335.173 21.523 C 335.256 21.810,335.375 22.091,335.438 22.148 C 335.501 22.204,335.504 22.113,335.443 21.945 C 335.383 21.777,335.333 21.496,335.333 21.320 C 335.333 21.144,335.264 21.000,335.178 21.000 C 335.084 21.000,335.082 21.204,335.173 21.523 M361.082 21.668 C 360.916 21.852,360.819 22.041,360.867 22.090 C 360.915 22.138,361.079 21.987,361.231 21.755 C 361.563 21.248,361.497 21.209,361.082 21.668 M69.360 23.445 C 69.345 23.735,69.290 24.110,69.237 24.278 C 69.147 24.566,69.152 24.567,69.331 24.288 C 69.435 24.126,69.490 23.751,69.454 23.455 L 69.387 22.917 69.360 23.445 M107.503 23.292 C 107.510 23.657,107.828 23.899,107.831 23.542 C 107.832 23.335,107.758 23.167,107.667 23.167 C 107.575 23.167,107.501 23.223,107.503 23.292 M397.169 23.958 C 397.177 24.324,397.495 24.566,397.497 24.208 C 397.499 24.002,397.425 23.833,397.333 23.833 C 397.242 23.833,397.168 23.890,397.169 23.958 M44.778 24.294 C 44.831 24.502,44.940 24.713,45.020 24.762 C 45.248 24.903,45.193 24.598,44.925 24.240 C 44.692 23.928,44.687 23.930,44.778 24.294 M335.717 24.819 C 335.790 25.297,336.000 25.460,336.000 25.038 C 336.000 24.844,335.925 24.640,335.833 24.583 C 335.737 24.524,335.688 24.624,335.717 24.819 M384.612 25.750 C 384.738 26.574,384.834 26.714,384.831 26.069 C 384.829 25.802,384.757 25.471,384.669 25.333 C 384.560 25.163,384.542 25.296,384.612 25.750 M322.503 25.792 C 322.501 25.998,322.575 26.167,322.667 26.167 C 322.875 26.167,322.875 25.990,322.667 25.667 C 322.536 25.465,322.505 25.488,322.503 25.792 M283.568 26.731 C 283.519 26.858,283.504 27.289,283.535 27.689 C 283.589 28.393,283.593 28.386,283.670 27.458 C 283.751 26.485,283.727 26.315,283.568 26.731 M296.847 27.167 C 296.826 27.396,296.781 27.724,296.749 27.897 C 296.709 28.106,296.745 28.155,296.857 28.043 C 296.949 27.951,296.993 27.622,296.955 27.313 C 296.902 26.875,296.878 26.843,296.847 27.167 M346.413 40.583 C 346.413 48.192,346.433 51.329,346.458 47.554 C 346.483 43.780,346.483 37.555,346.458 33.721 C 346.433 29.887,346.413 32.975,346.413 40.583 M108.332 28.701 C 108.287 29.590,108.309 30.258,108.382 30.186 C 108.454 30.113,108.491 29.385,108.464 28.568 L 108.414 27.083 108.332 28.701 M283.500 30.917 C 283.500 31.360,283.554 31.668,283.620 31.602 C 283.740 31.483,283.697 30.313,283.568 30.181 C 283.531 30.142,283.500 30.474,283.500 30.917 M296.857 32.000 C 296.857 32.137,296.921 32.400,297.000 32.583 C 297.090 32.793,297.143 32.824,297.143 32.667 C 297.143 32.529,297.079 32.267,297.000 32.083 C 296.910 31.873,296.857 31.842,296.857 32.000 M335.875 33.083 C 335.877 33.450,335.911 33.580,335.951 33.373 C 335.991 33.166,335.990 32.866,335.948 32.706 C 335.906 32.547,335.874 32.717,335.875 33.083 M69.290 33.603 C 69.338 34.050,69.405 34.448,69.439 34.486 C 69.572 34.637,69.486 33.235,69.349 33.019 C 69.259 32.878,69.237 33.105,69.290 33.603 M273.104 34.090 C 273.047 34.239,273.008 34.523,273.017 34.722 C 273.028 34.950,273.084 34.869,273.171 34.501 C 273.317 33.882,273.277 33.639,273.104 34.090 M210.250 41.333 C 210.187 41.530,210.174 41.729,210.220 41.775 C 210.265 41.821,210.354 41.697,210.417 41.500 C 210.479 41.303,210.493 41.104,210.447 41.058 C 210.401 41.012,210.313 41.136,210.250 41.333 M19.625 41.958 C 22.031 41.984,25.969 41.984,28.375 41.958 C 30.781 41.932,28.813 41.911,24.000 41.911 C 19.188 41.911,17.219 41.932,19.625 41.958 M269.492 44.348 C 269.390 44.539,269.350 44.739,269.403 44.792 C 269.456 44.845,269.500 44.807,269.500 44.706 C 269.500 44.606,269.618 44.406,269.762 44.262 C 269.906 44.118,269.946 44.000,269.851 44.000 C 269.756 44.000,269.595 44.156,269.492 44.348 M329.958 47.232 C 329.798 47.354,329.667 47.499,329.667 47.555 C 329.667 47.743,330.140 47.477,330.232 47.237 C 330.342 46.951,330.329 46.951,329.958 47.232 M49.289 48.667 C 49.132 48.850,49.061 49.000,49.131 49.000 C 49.202 49.000,49.388 48.850,49.545 48.667 C 49.702 48.483,49.772 48.333,49.702 48.333 C 49.632 48.333,49.446 48.483,49.289 48.667 M108.393 53.000 C 108.393 53.871,108.422 54.227,108.456 53.792 C 108.490 53.356,108.490 52.644,108.456 52.208 C 108.422 51.773,108.393 52.129,108.393 53.000 M91.000 54.667 C 91.000 54.758,91.206 54.832,91.458 54.831 C 91.815 54.829,91.861 54.793,91.667 54.667 C 91.341 54.456,91.000 54.456,91.000 54.667 M98.083 54.667 L 97.583 54.794 98.032 54.814 C 98.279 54.824,98.527 54.758,98.583 54.667 C 98.640 54.575,98.663 54.509,98.635 54.520 C 98.607 54.531,98.358 54.597,98.083 54.667 " stroke="none" fill="#f8744c" fill-rule="evenodd"></path><path id="path4" d="M91.769 2.637 C 91.722 2.712,91.905 2.741,92.175 2.701 C 92.446 2.661,92.667 2.600,92.667 2.564 C 92.667 2.437,91.851 2.503,91.769 2.637 M108.330 4.750 C 108.244 6.093,108.258 6.298,108.424 6.132 C 108.474 6.082,108.492 5.450,108.465 4.729 L 108.415 3.417 108.330 4.750 M363.002 4.482 C 362.762 4.549,362.664 4.645,362.769 4.710 C 362.869 4.772,363.093 4.715,363.267 4.583 C 363.615 4.320,363.603 4.315,363.002 4.482 M331.167 12.437 C 331.167 12.524,331.393 12.856,331.671 13.173 L 332.175 13.750 331.745 13.088 C 331.235 12.304,331.167 12.226,331.167 12.437 M304.410 16.734 C 304.110 16.953,304.119 16.963,304.545 16.881 C 304.795 16.834,305.000 16.728,305.000 16.647 C 305.000 16.433,304.776 16.466,304.410 16.734 M314.589 16.675 C 314.642 16.762,314.844 16.833,315.038 16.833 C 315.463 16.833,315.349 16.683,314.851 16.587 C 314.651 16.548,314.535 16.588,314.589 16.675 M285.552 17.458 C 285.495 17.619,285.417 17.825,285.379 17.917 C 285.340 18.008,285.427 17.938,285.571 17.760 C 285.833 17.437,285.912 17.167,285.745 17.167 C 285.696 17.167,285.609 17.298,285.552 17.458 M40.843 18.625 C 40.848 18.694,41.091 18.933,41.384 19.156 L 41.917 19.562 41.427 19.031 C 40.918 18.479,40.827 18.416,40.843 18.625 M334.333 18.531 C 334.333 18.585,334.450 18.881,334.592 19.189 C 334.849 19.748,334.849 19.748,334.746 19.250 C 334.657 18.818,334.333 18.254,334.333 18.531 M284.833 19.403 C 284.833 19.533,284.788 19.758,284.732 19.903 C 284.677 20.048,284.706 20.167,284.797 20.167 C 284.888 20.167,284.995 19.942,285.036 19.667 C 285.076 19.392,285.047 19.167,284.971 19.167 C 284.895 19.167,284.833 19.273,284.833 19.403 M42.101 19.904 C 42.151 20.034,42.301 20.183,42.433 20.233 C 42.627 20.308,42.639 20.261,42.498 19.996 C 42.297 19.621,41.963 19.543,42.101 19.904 M335.173 21.523 C 335.256 21.810,335.375 22.091,335.438 22.148 C 335.501 22.204,335.504 22.113,335.443 21.945 C 335.383 21.777,335.333 21.496,335.333 21.320 C 335.333 21.144,335.264 21.000,335.178 21.000 C 335.084 21.000,335.082 21.204,335.173 21.523 M361.082 21.668 C 360.916 21.852,360.819 22.041,360.867 22.090 C 360.915 22.138,361.079 21.987,361.231 21.755 C 361.563 21.248,361.497 21.209,361.082 21.668 M69.360 23.445 C 69.345 23.735,69.290 24.110,69.237 24.278 C 69.147 24.566,69.152 24.567,69.331 24.288 C 69.435 24.126,69.490 23.751,69.454 23.455 L 69.387 22.917 69.360 23.445 M107.503 23.292 C 107.510 23.657,107.828 23.899,107.831 23.542 C 107.832 23.335,107.758 23.167,107.667 23.167 C 107.575 23.167,107.501 23.223,107.503 23.292 M397.169 23.958 C 397.177 24.324,397.495 24.566,397.497 24.208 C 397.499 24.002,397.425 23.833,397.333 23.833 C 397.242 23.833,397.168 23.890,397.169 23.958 M44.778 24.294 C 44.831 24.502,44.940 24.713,45.020 24.762 C 45.248 24.903,45.193 24.598,44.925 24.240 C 44.692 23.928,44.687 23.930,44.778 24.294 M335.717 24.819 C 335.790 25.297,336.000 25.460,336.000 25.038 C 336.000 24.844,335.925 24.640,335.833 24.583 C 335.737 24.524,335.688 24.624,335.717 24.819 M384.612 25.750 C 384.738 26.574,384.834 26.714,384.831 26.069 C 384.829 25.802,384.757 25.471,384.669 25.333 C 384.560 25.163,384.542 25.296,384.612 25.750 M322.503 25.792 C 322.501 25.998,322.575 26.167,322.667 26.167 C 322.875 26.167,322.875 25.990,322.667 25.667 C 322.536 25.465,322.505 25.488,322.503 25.792 M283.568 26.731 C 283.519 26.858,283.504 27.289,283.535 27.689 C 283.589 28.393,283.593 28.386,283.670 27.458 C 283.751 26.485,283.727 26.315,283.568 26.731 M296.847 27.167 C 296.826 27.396,296.781 27.724,296.749 27.897 C 296.709 28.106,296.745 28.155,296.857 28.043 C 296.949 27.951,296.993 27.622,296.955 27.313 C 296.902 26.875,296.878 26.843,296.847 27.167 M346.413 40.583 C 346.413 48.192,346.433 51.329,346.458 47.554 C 346.483 43.780,346.483 37.555,346.458 33.721 C 346.433 29.887,346.413 32.975,346.413 40.583 M108.332 28.701 C 108.287 29.590,108.309 30.258,108.382 30.186 C 108.454 30.113,108.491 29.385,108.464 28.568 L 108.414 27.083 108.332 28.701 M283.500 30.917 C 283.500 31.360,283.554 31.668,283.620 31.602 C 283.740 31.483,283.697 30.313,283.568 30.181 C 283.531 30.142,283.500 30.474,283.500 30.917 M296.857 32.000 C 296.857 32.137,296.921 32.400,297.000 32.583 C 297.090 32.793,297.143 32.824,297.143 32.667 C 297.143 32.529,297.079 32.267,297.000 32.083 C 296.910 31.873,296.857 31.842,296.857 32.000 M335.875 33.083 C 335.877 33.450,335.911 33.580,335.951 33.373 C 335.991 33.166,335.990 32.866,335.948 32.706 C 335.906 32.547,335.874 32.717,335.875 33.083 M69.290 33.603 C 69.338 34.050,69.405 34.448,69.439 34.486 C 69.572 34.637,69.486 33.235,69.349 33.019 C 69.259 32.878,69.237 33.105,69.290 33.603 M273.104 34.090 C 273.047 34.239,273.008 34.523,273.017 34.722 C 273.028 34.950,273.084 34.869,273.171 34.501 C 273.317 33.882,273.277 33.639,273.104 34.090 M210.250 41.333 C 210.187 41.530,210.174 41.729,210.220 41.775 C 210.265 41.821,210.354 41.697,210.417 41.500 C 210.479 41.303,210.493 41.104,210.447 41.058 C 210.401 41.012,210.313 41.136,210.250 41.333 M19.625 41.958 C 22.031 41.984,25.969 41.984,28.375 41.958 C 30.781 41.932,28.813 41.911,24.000 41.911 C 19.188 41.911,17.219 41.932,19.625 41.958 M269.492 44.348 C 269.390 44.539,269.350 44.739,269.403 44.792 C 269.456 44.845,269.500 44.807,269.500 44.706 C 269.500 44.606,269.618 44.406,269.762 44.262 C 269.906 44.118,269.946 44.000,269.851 44.000 C 269.756 44.000,269.595 44.156,269.492 44.348 M329.958 47.232 C 329.798 47.354,329.667 47.499,329.667 47.555 C 329.667 47.743,330.140 47.477,330.232 47.237 C 330.342 46.951,330.329 46.951,329.958 47.232 M49.289 48.667 C 49.132 48.850,49.061 49.000,49.131 49.000 C 49.202 49.000,49.388 48.850,49.545 48.667 C 49.702 48.483,49.772 48.333,49.702 48.333 C 49.632 48.333,49.446 48.483,49.289 48.667 M108.393 53.000 C 108.393 53.871,108.422 54.227,108.456 53.792 C 108.490 53.356,108.490 52.644,108.456 52.208 C 108.422 51.773,108.393 52.129,108.393 53.000 M91.000 54.667 C 91.000 54.758,91.206 54.832,91.458 54.831 C 91.815 54.829,91.861 54.793,91.667 54.667 C 91.341 54.456,91.000 54.456,91.000 54.667 M98.083 54.667 L 97.583 54.794 98.032 54.814 C 98.279 54.824,98.527 54.758,98.583 54.667 C 98.640 54.575,98.663 54.509,98.635 54.520 C 98.607 54.531,98.358 54.597,98.083 54.667 " stroke="none" fill="#f8744c" fill-rule="evenodd"></path></g></svg>